<svg version="1.1" xmlns="http://www.w3.org/2000/svg" xmlns:xlink="http://www.w3.org/1999/xlink" width="1308" height="892"><defs><clipPath id="emgsfbpWRPvB"><path fill="none" stroke="none" d=" M 0 0 L 1308 0 L 1308 892 L 0 892 L 0 0 Z"/></clipPath></defs><g transform="scale(1,1)" clip-path="url(#emgsfbpWRPvB)"><g><rect fill="rgb(255,255,255)" stroke="none" x="0" y="0" width="1308" height="892" fill-opacity="1"/><path fill="none" stroke="rgb(192,192,192)" paint-order="fill stroke markers" d=" M 47.5 0.5 L 47.5 892.5 M 47.5 0.5 L 47.5 892.5 M 120.5 0.5 L 120.5 892.5 M 194.5 0.5 L 194.5 892.5 M 267.5 0.5 L 267.5 892.5 M 340.5 0.5 L 340.5 892.5 M 486.5 0.5 L 486.5 892.5 M 560.5 0.5 L 560.5 892.5 M 633.5 0.5 L 633.5 892.5 M 706.5 0.5 L 706.5 892.5 M 779.5 0.5 L 779.5 892.5 M 853.5 0.5 L 853.5 892.5 M 926.5 0.5 L 926.5 892.5 M 999.5 0.5 L 999.5 892.5 M 1072.5 0.5 L 1072.5 892.5 M 1145.5 0.5 L 1145.5 892.5 M 1219.5 0.5 L 1219.5 892.5 M 1292.5 0.5 L 1292.5 892.5" stroke-opacity="1" stroke-linecap="round" stroke-linejoin="round" stroke-miterlimit="10"/><path fill="none" stroke="rgb(192,192,192)" paint-order="fill stroke markers" d=" M 3.5 0.5 L 3.5 892.5 M 18.5 0.5 L 18.5 892.5 M 33.5 0.5 L 33.5 892.5 M 62.5 0.5 L 62.5 892.5 M 77.5 0.5 L 77.5 892.5 M 91.5 0.5 L 91.5 892.5 M 106.5 0.5 L 106.5 892.5 M 135.5 0.5 L 135.5 892.5 M 150.5 0.5 L 150.5 892.5 M 164.5 0.5 L 164.5 892.5 M 179.5 0.5 L 179.5 892.5 M 208.5 0.5 L 208.5 892.5 M 223.5 0.5 L 223.5 892.5 M 238.5 0.5 L 238.5 892.5 M 252.5 0.5 L 252.5 892.5 M 282.5 0.5 L 282.5 892.5 M 296.5 0.5 L 296.5 892.5 M 311.5 0.5 L 311.5 892.5 M 325.5 0.5 L 325.5 892.5 M 355.5 0.5 L 355.5 892.5 M 369.5 0.5 L 369.5 892.5 M 384.5 0.5 L 384.5 892.5 M 399.5 0.5 L 399.5 892.5 M 428.5 0.5 L 428.5 892.5 M 443.5 0.5 L 443.5 892.5 M 457.5 0.5 L 457.5 892.5 M 472.5 0.5 L 472.5 892.5 M 501.5 0.5 L 501.5 892.5 M 516.5 0.5 L 516.5 892.5 M 530.5 0.5 L 530.5 892.5 M 545.5 0.5 L 545.5 892.5 M 574.5 0.5 L 574.5 892.5 M 589.5 0.5 L 589.5 892.5 M 604.5 0.5 L 604.5 892.5 M 618.5 0.5 L 618.5 892.5 M 648.5 0.5 L 648.5 892.5 M 662.5 0.5 L 662.5 892.5 M 677.5 0.5 L 677.5 892.5 M 691.5 0.5 L 691.5 892.5 M 721.5 0.5 L 721.5 892.5 M 735.5 0.5 L 735.5 892.5 M 750.5 0.5 L 750.5 892.5 M 765.5 0.5 L 765.5 892.5 M 794.5 0.5 L 794.5 892.5 M 809.5 0.5 L 809.5 892.5 M 823.5 0.5 L 823.5 892.5 M 838.5 0.5 L 838.5 892.5 M 867.5 0.5 L 867.5 892.5 M 882.5 0.5 L 882.5 892.5 M 896.5 0.5 L 896.5 892.5 M 911.5 0.5 L 911.5 892.5 M 940.5 0.5 L 940.5 892.5 M 955.5 0.5 L 955.5 892.5 M 970.5 0.5 L 970.5 892.5 M 984.5 0.5 L 984.5 892.5 M 1014.5 0.5 L 1014.5 892.5 M 1028.5 0.5 L 1028.5 892.5 M 1043.5 0.5 L 1043.5 892.5 M 1057.5 0.5 L 1057.5 892.5 M 1087.5 0.5 L 1087.5 892.5 M 1101.5 0.5 L 1101.5 892.5 M 1116.5 0.5 L 1116.5 892.5 M 1131.5 0.5 L 1131.5 892.5 M 1160.5 0.5 L 1160.5 892.5 M 1175.5 0.5 L 1175.5 892.5 M 1189.5 0.5 L 1189.5 892.5 M 1204.5 0.5 L 1204.5 892.5 M 1233.5 0.5 L 1233.5 892.5 M 1248.5 0.5 L 1248.5 892.5 M 1262.5 0.5 L 1262.5 892.5 M 1277.5 0.5 L 1277.5 892.5 M 1306.5 0.5 L 1306.5 892.5" stroke-opacity="0.23529411764705882" stroke-linecap="round" stroke-linejoin="round" stroke-miterlimit="10"/><path fill="none" stroke="rgb(192,192,192)" paint-order="fill stroke markers" d=" M 0.5 46.5 L 1308.5 46.5 M 0.5 46.5 L 1308.5 46.5 M 0.5 119.5 L 1308.5 119.5 M 0.5 192.5 L 1308.5 192.5 M 0.5 265.5 L 1308.5 265.5 M 0.5 338.5 L 1308.5 338.5 M 0.5 412.5 L 1308.5 412.5 M 0.5 558.5 L 1308.5 558.5 M 0.5 631.5 L 1308.5 631.5 M 0.5 704.5 L 1308.5 704.5 M 0.5 778.5 L 1308.5 778.5 M 0.5 851.5 L 1308.5 851.5" stroke-opacity="1" stroke-linecap="round" stroke-linejoin="round" stroke-miterlimit="10"/><path fill="none" stroke="rgb(192,192,192)" paint-order="fill stroke markers" d=" M 0.5 2.5 L 1308.5 2.5 M 0.5 2.5 L 1308.5 2.5 M 0.5 16.5 L 1308.5 16.5 M 0.5 31.5 L 1308.5 31.5 M 0.5 60.5 L 1308.5 60.5 M 0.5 75.5 L 1308.5 75.5 M 0.5 90.5 L 1308.5 90.5 M 0.5 104.5 L 1308.5 104.5 M 0.5 133.5 L 1308.5 133.5 M 0.5 148.5 L 1308.5 148.5 M 0.5 163.5 L 1308.5 163.5 M 0.5 177.5 L 1308.5 177.5 M 0.5 207.5 L 1308.5 207.5 M 0.5 221.5 L 1308.5 221.5 M 0.5 236.5 L 1308.5 236.5 M 0.5 251.5 L 1308.5 251.5 M 0.5 280.5 L 1308.5 280.5 M 0.5 295.5 L 1308.5 295.5 M 0.5 309.5 L 1308.5 309.5 M 0.5 324.5 L 1308.5 324.5 M 0.5 353.5 L 1308.5 353.5 M 0.5 368.5 L 1308.5 368.5 M 0.5 382.5 L 1308.5 382.5 M 0.5 397.5 L 1308.5 397.5 M 0.5 426.5 L 1308.5 426.5 M 0.5 441.5 L 1308.5 441.5 M 0.5 456.5 L 1308.5 456.5 M 0.5 470.5 L 1308.5 470.5 M 0.5 500.5 L 1308.5 500.5 M 0.5 514.5 L 1308.5 514.5 M 0.5 529.5 L 1308.5 529.5 M 0.5 543.5 L 1308.5 543.5 M 0.5 573.5 L 1308.5 573.5 M 0.5 587.5 L 1308.5 587.5 M 0.5 602.5 L 1308.5 602.5 M 0.5 617.5 L 1308.5 617.5 M 0.5 646.5 L 1308.5 646.5 M 0.5 661.5 L 1308.5 661.5 M 0.5 675.5 L 1308.5 675.5 M 0.5 690.5 L 1308.5 690.5 M 0.5 719.5 L 1308.5 719.5 M 0.5 734.5 L 1308.5 734.5 M 0.5 748.5 L 1308.5 748.5 M 0.5 763.5 L 1308.5 763.5 M 0.5 792.5 L 1308.5 792.5 M 0.5 807.5 L 1308.5 807.5 M 0.5 822.5 L 1308.5 822.5 M 0.5 836.5 L 1308.5 836.5 M 0.5 866.5 L 1308.5 866.5 M 0.5 880.5 L 1308.5 880.5" stroke-opacity="0.23529411764705882" stroke-linecap="round" stroke-linejoin="round" stroke-miterlimit="10"/><path fill="none" stroke="rgb(37,37,37)" paint-order="fill stroke markers" d=" M 413.5 2.5 L 413.5 892.5" stroke-opacity="1" stroke-miterlimit="10"/><path fill="none" stroke="rgb(37,37,37)" paint-order="fill stroke markers" d=" M 413.5 1.5 L 409.5 5.5" stroke-opacity="1" stroke-miterlimit="10"/><path fill="none" stroke="rgb(37,37,37)" paint-order="fill stroke markers" d=" M 413.5 1.5 L 417.5 5.5" stroke-opacity="1" stroke-miterlimit="10"/><path fill="none" stroke="rgb(37,37,37)" paint-order="fill stroke markers" d=" M 0.5 485.5 L 1306.5 485.5" stroke-opacity="1" stroke-miterlimit="10"/><path fill="none" stroke="rgb(37,37,37)" paint-order="fill stroke markers" d=" M 1307.5 485.5 L 1303.5 481.5" stroke-opacity="1" stroke-miterlimit="10"/><path fill="none" stroke="rgb(37,37,37)" paint-order="fill stroke markers" d=" M 1307.5 485.5 L 1303.5 489.5" stroke-opacity="1" stroke-miterlimit="10"/><text fill="rgb(37,37,37)" stroke="none" font-family="geogebra-sans-serif, sans-serif" font-size="12px" font-style="normal" font-weight="normal" text-decoration="normal" x="42" y="501" text-anchor="start" dominant-baseline="alphabetic" fill-opacity="1">–5</text><text fill="none" stroke="rgb(255,255,255)" font-family="geogebra-sans-serif, sans-serif" font-size="12px" font-style="normal" font-weight="normal" text-decoration="normal" x="42" y="501" text-anchor="start" dominant-baseline="alphabetic" stroke-opacity="1" stroke-linejoin="bevel" stroke-miterlimit="10" stroke-width="3">–5</text><text fill="rgb(37,37,37)" stroke="none" font-family="geogebra-sans-serif, sans-serif" font-size="12px" font-style="normal" font-weight="normal" text-decoration="normal" x="42" y="501" text-anchor="start" dominant-baseline="alphabetic" fill-opacity="1">–5</text><text fill="rgb(37,37,37)" stroke="none" font-family="geogebra-sans-serif, sans-serif" font-size="12px" font-style="normal" font-weight="normal" text-decoration="normal" x="115" y="501" text-anchor="start" dominant-baseline="alphabetic" fill-opacity="1">–4</text><text fill="none" stroke="rgb(255,255,255)" font-family="geogebra-sans-serif, sans-serif" font-size="12px" font-style="normal" font-weight="normal" text-decoration="normal" x="115" y="501" text-anchor="start" dominant-baseline="alphabetic" stroke-opacity="1" stroke-linejoin="bevel" stroke-miterlimit="10" stroke-width="3">–4</text><text fill="rgb(37,37,37)" stroke="none" font-family="geogebra-sans-serif, sans-serif" font-size="12px" font-style="normal" font-weight="normal" text-decoration="normal" x="115" y="501" text-anchor="start" dominant-baseline="alphabetic" fill-opacity="1">–4</text><text fill="rgb(37,37,37)" stroke="none" font-family="geogebra-sans-serif, sans-serif" font-size="12px" font-style="normal" font-weight="normal" text-decoration="normal" x="189" y="501" text-anchor="start" dominant-baseline="alphabetic" fill-opacity="1">–3</text><text fill="none" stroke="rgb(255,255,255)" font-family="geogebra-sans-serif, sans-serif" font-size="12px" font-style="normal" font-weight="normal" text-decoration="normal" x="189" y="501" text-anchor="start" dominant-baseline="alphabetic" stroke-opacity="1" stroke-linejoin="bevel" stroke-miterlimit="10" stroke-width="3">–3</text><text fill="rgb(37,37,37)" stroke="none" font-family="geogebra-sans-serif, sans-serif" font-size="12px" font-style="normal" font-weight="normal" text-decoration="normal" x="189" y="501" text-anchor="start" dominant-baseline="alphabetic" fill-opacity="1">–3</text><text fill="rgb(37,37,37)" stroke="none" font-family="geogebra-sans-serif, sans-serif" font-size="12px" font-style="normal" font-weight="normal" text-decoration="normal" x="262" y="501" text-anchor="start" dominant-baseline="alphabetic" fill-opacity="1">–2</text><text fill="none" stroke="rgb(255,255,255)" font-family="geogebra-sans-serif, sans-serif" font-size="12px" font-style="normal" font-weight="normal" text-decoration="normal" x="262" y="501" text-anchor="start" dominant-baseline="alphabetic" stroke-opacity="1" stroke-linejoin="bevel" stroke-miterlimit="10" stroke-width="3">–2</text><text fill="rgb(37,37,37)" stroke="none" font-family="geogebra-sans-serif, sans-serif" font-size="12px" font-style="normal" font-weight="normal" text-decoration="normal" x="262" y="501" text-anchor="start" dominant-baseline="alphabetic" fill-opacity="1">–2</text><text fill="rgb(37,37,37)" stroke="none" font-family="geogebra-sans-serif, sans-serif" font-size="12px" font-style="normal" font-weight="normal" text-decoration="normal" x="335" y="501" text-anchor="start" dominant-baseline="alphabetic" fill-opacity="1">–1</text><text fill="none" stroke="rgb(255,255,255)" font-family="geogebra-sans-serif, sans-serif" font-size="12px" font-style="normal" font-weight="normal" text-decoration="normal" x="335" y="501" text-anchor="start" dominant-baseline="alphabetic" stroke-opacity="1" stroke-linejoin="bevel" stroke-miterlimit="10" stroke-width="3">–1</text><text fill="rgb(37,37,37)" stroke="none" font-family="geogebra-sans-serif, sans-serif" font-size="12px" font-style="normal" font-weight="normal" text-decoration="normal" x="335" y="501" text-anchor="start" dominant-baseline="alphabetic" fill-opacity="1">–1</text><text fill="rgb(37,37,37)" stroke="none" font-family="geogebra-sans-serif, sans-serif" font-size="12px" font-style="normal" font-weight="normal" text-decoration="normal" x="484" y="501" text-anchor="start" dominant-baseline="alphabetic" fill-opacity="1">1</text><text fill="none" stroke="rgb(255,255,255)" font-family="geogebra-sans-serif, sans-serif" font-size="12px" font-style="normal" font-weight="normal" text-decoration="normal" x="484" y="501" text-anchor="start" dominant-baseline="alphabetic" stroke-opacity="1" stroke-linejoin="bevel" stroke-miterlimit="10" stroke-width="3">1</text><text fill="rgb(37,37,37)" stroke="none" font-family="geogebra-sans-serif, sans-serif" font-size="12px" font-style="normal" font-weight="normal" text-decoration="normal" x="484" y="501" text-anchor="start" dominant-baseline="alphabetic" fill-opacity="1">1</text><text fill="rgb(37,37,37)" stroke="none" font-family="geogebra-sans-serif, sans-serif" font-size="12px" font-style="normal" font-weight="normal" text-decoration="normal" x="558" y="501" text-anchor="start" dominant-baseline="alphabetic" fill-opacity="1">2</text><text fill="none" stroke="rgb(255,255,255)" font-family="geogebra-sans-serif, sans-serif" font-size="12px" font-style="normal" font-weight="normal" text-decoration="normal" x="558" y="501" text-anchor="start" dominant-baseline="alphabetic" stroke-opacity="1" stroke-linejoin="bevel" stroke-miterlimit="10" stroke-width="3">2</text><text fill="rgb(37,37,37)" stroke="none" font-family="geogebra-sans-serif, sans-serif" font-size="12px" font-style="normal" font-weight="normal" text-decoration="normal" x="558" y="501" text-anchor="start" dominant-baseline="alphabetic" fill-opacity="1">2</text><text fill="rgb(37,37,37)" stroke="none" font-family="geogebra-sans-serif, sans-serif" font-size="12px" font-style="normal" font-weight="normal" text-decoration="normal" x="631" y="501" text-anchor="start" dominant-baseline="alphabetic" fill-opacity="1">3</text><text fill="none" stroke="rgb(255,255,255)" font-family="geogebra-sans-serif, sans-serif" font-size="12px" font-style="normal" font-weight="normal" text-decoration="normal" x="631" y="501" text-anchor="start" dominant-baseline="alphabetic" stroke-opacity="1" stroke-linejoin="bevel" stroke-miterlimit="10" stroke-width="3">3</text><text fill="rgb(37,37,37)" stroke="none" font-family="geogebra-sans-serif, sans-serif" font-size="12px" font-style="normal" font-weight="normal" text-decoration="normal" x="631" y="501" text-anchor="start" dominant-baseline="alphabetic" fill-opacity="1">3</text><text fill="rgb(37,37,37)" stroke="none" font-family="geogebra-sans-serif, sans-serif" font-size="12px" font-style="normal" font-weight="normal" text-decoration="normal" x="704" y="501" text-anchor="start" dominant-baseline="alphabetic" fill-opacity="1">4</text><text fill="none" stroke="rgb(255,255,255)" font-family="geogebra-sans-serif, sans-serif" font-size="12px" font-style="normal" font-weight="normal" text-decoration="normal" x="704" y="501" text-anchor="start" dominant-baseline="alphabetic" stroke-opacity="1" stroke-linejoin="bevel" stroke-miterlimit="10" stroke-width="3">4</text><text fill="rgb(37,37,37)" stroke="none" font-family="geogebra-sans-serif, sans-serif" font-size="12px" font-style="normal" font-weight="normal" text-decoration="normal" x="704" y="501" text-anchor="start" dominant-baseline="alphabetic" fill-opacity="1">4</text><text fill="rgb(37,37,37)" stroke="none" font-family="geogebra-sans-serif, sans-serif" font-size="12px" font-style="normal" font-weight="normal" text-decoration="normal" x="777" y="501" text-anchor="start" dominant-baseline="alphabetic" fill-opacity="1">5</text><text fill="none" stroke="rgb(255,255,255)" font-family="geogebra-sans-serif, sans-serif" font-size="12px" font-style="normal" font-weight="normal" text-decoration="normal" x="777" y="501" text-anchor="start" dominant-baseline="alphabetic" stroke-opacity="1" stroke-linejoin="bevel" stroke-miterlimit="10" stroke-width="3">5</text><text fill="rgb(37,37,37)" stroke="none" font-family="geogebra-sans-serif, sans-serif" font-size="12px" font-style="normal" font-weight="normal" text-decoration="normal" x="777" y="501" text-anchor="start" dominant-baseline="alphabetic" fill-opacity="1">5</text><text fill="rgb(37,37,37)" stroke="none" font-family="geogebra-sans-serif, sans-serif" font-size="12px" font-style="normal" font-weight="normal" text-decoration="normal" x="851" y="501" text-anchor="start" dominant-baseline="alphabetic" fill-opacity="1">6</text><text fill="none" stroke="rgb(255,255,255)" font-family="geogebra-sans-serif, sans-serif" font-size="12px" font-style="normal" font-weight="normal" text-decoration="normal" x="851" y="501" text-anchor="start" dominant-baseline="alphabetic" stroke-opacity="1" stroke-linejoin="bevel" stroke-miterlimit="10" stroke-width="3">6</text><text fill="rgb(37,37,37)" stroke="none" font-family="geogebra-sans-serif, sans-serif" font-size="12px" font-style="normal" font-weight="normal" text-decoration="normal" x="851" y="501" text-anchor="start" dominant-baseline="alphabetic" fill-opacity="1">6</text><text fill="rgb(37,37,37)" stroke="none" font-family="geogebra-sans-serif, sans-serif" font-size="12px" font-style="normal" font-weight="normal" text-decoration="normal" x="924" y="501" text-anchor="start" dominant-baseline="alphabetic" fill-opacity="1">7</text><text fill="none" stroke="rgb(255,255,255)" font-family="geogebra-sans-serif, sans-serif" font-size="12px" font-style="normal" font-weight="normal" text-decoration="normal" x="924" y="501" text-anchor="start" dominant-baseline="alphabetic" stroke-opacity="1" stroke-linejoin="bevel" stroke-miterlimit="10" stroke-width="3">7</text><text fill="rgb(37,37,37)" stroke="none" font-family="geogebra-sans-serif, sans-serif" font-size="12px" font-style="normal" font-weight="normal" text-decoration="normal" x="924" y="501" text-anchor="start" dominant-baseline="alphabetic" fill-opacity="1">7</text><text fill="rgb(37,37,37)" stroke="none" font-family="geogebra-sans-serif, sans-serif" font-size="12px" font-style="normal" font-weight="normal" text-decoration="normal" x="997" y="501" text-anchor="start" dominant-baseline="alphabetic" fill-opacity="1">8</text><text fill="none" stroke="rgb(255,255,255)" font-family="geogebra-sans-serif, sans-serif" font-size="12px" font-style="normal" font-weight="normal" text-decoration="normal" x="997" y="501" text-anchor="start" dominant-baseline="alphabetic" stroke-opacity="1" stroke-linejoin="bevel" stroke-miterlimit="10" stroke-width="3">8</text><text fill="rgb(37,37,37)" stroke="none" font-family="geogebra-sans-serif, sans-serif" font-size="12px" font-style="normal" font-weight="normal" text-decoration="normal" x="997" y="501" text-anchor="start" dominant-baseline="alphabetic" fill-opacity="1">8</text><text fill="rgb(37,37,37)" stroke="none" font-family="geogebra-sans-serif, sans-serif" font-size="12px" font-style="normal" font-weight="normal" text-decoration="normal" x="1070" y="501" text-anchor="start" dominant-baseline="alphabetic" fill-opacity="1">9</text><text fill="none" stroke="rgb(255,255,255)" font-family="geogebra-sans-serif, sans-serif" font-size="12px" font-style="normal" font-weight="normal" text-decoration="normal" x="1070" y="501" text-anchor="start" dominant-baseline="alphabetic" stroke-opacity="1" stroke-linejoin="bevel" stroke-miterlimit="10" stroke-width="3">9</text><text fill="rgb(37,37,37)" stroke="none" font-family="geogebra-sans-serif, sans-serif" font-size="12px" font-style="normal" font-weight="normal" text-decoration="normal" x="1070" y="501" text-anchor="start" dominant-baseline="alphabetic" fill-opacity="1">9</text><text fill="rgb(37,37,37)" stroke="none" font-family="geogebra-sans-serif, sans-serif" font-size="12px" font-style="normal" font-weight="normal" text-decoration="normal" x="1140" y="501" text-anchor="start" dominant-baseline="alphabetic" fill-opacity="1">10</text><text fill="none" stroke="rgb(255,255,255)" font-family="geogebra-sans-serif, sans-serif" font-size="12px" font-style="normal" font-weight="normal" text-decoration="normal" x="1140" y="501" text-anchor="start" dominant-baseline="alphabetic" stroke-opacity="1" stroke-linejoin="bevel" stroke-miterlimit="10" stroke-width="3">10</text><text fill="rgb(37,37,37)" stroke="none" font-family="geogebra-sans-serif, sans-serif" font-size="12px" font-style="normal" font-weight="normal" text-decoration="normal" x="1140" y="501" text-anchor="start" dominant-baseline="alphabetic" fill-opacity="1">10</text><text fill="rgb(37,37,37)" stroke="none" font-family="geogebra-sans-serif, sans-serif" font-size="12px" font-style="normal" font-weight="normal" text-decoration="normal" x="1214" y="501" text-anchor="start" dominant-baseline="alphabetic" fill-opacity="1">11</text><text fill="none" stroke="rgb(255,255,255)" font-family="geogebra-sans-serif, sans-serif" font-size="12px" font-style="normal" font-weight="normal" text-decoration="normal" x="1214" y="501" text-anchor="start" dominant-baseline="alphabetic" stroke-opacity="1" stroke-linejoin="bevel" stroke-miterlimit="10" stroke-width="3">11</text><text fill="rgb(37,37,37)" stroke="none" font-family="geogebra-sans-serif, sans-serif" font-size="12px" font-style="normal" font-weight="normal" text-decoration="normal" x="1214" y="501" text-anchor="start" dominant-baseline="alphabetic" fill-opacity="1">11</text><text fill="rgb(37,37,37)" stroke="none" font-family="geogebra-sans-serif, sans-serif" font-size="12px" font-style="normal" font-weight="normal" text-decoration="normal" x="1287" y="501" text-anchor="start" dominant-baseline="alphabetic" fill-opacity="1">12</text><text fill="none" stroke="rgb(255,255,255)" font-family="geogebra-sans-serif, sans-serif" font-size="12px" font-style="normal" font-weight="normal" text-decoration="normal" x="1287" y="501" text-anchor="start" dominant-baseline="alphabetic" stroke-opacity="1" stroke-linejoin="bevel" stroke-miterlimit="10" stroke-width="3">12</text><text fill="rgb(37,37,37)" stroke="none" font-family="geogebra-sans-serif, sans-serif" font-size="12px" font-style="normal" font-weight="normal" text-decoration="normal" x="1287" y="501" text-anchor="start" dominant-baseline="alphabetic" fill-opacity="1">12</text><text fill="rgb(37,37,37)" stroke="none" font-family="geogebra-sans-serif, sans-serif" font-size="12px" font-style="normal" font-weight="normal" text-decoration="normal" x="392" y="856" text-anchor="start" dominant-baseline="alphabetic" fill-opacity="1">–5</text><text fill="none" stroke="rgb(255,255,255)" font-family="geogebra-sans-serif, sans-serif" font-size="12px" font-style="normal" font-weight="normal" text-decoration="normal" x="392" y="856" text-anchor="start" dominant-baseline="alphabetic" stroke-opacity="1" stroke-linejoin="bevel" stroke-miterlimit="10" stroke-width="3">–5</text><text fill="rgb(37,37,37)" stroke="none" font-family="geogebra-sans-serif, sans-serif" font-size="12px" font-style="normal" font-weight="normal" text-decoration="normal" x="392" y="856" text-anchor="start" dominant-baseline="alphabetic" fill-opacity="1">–5</text><text fill="rgb(37,37,37)" stroke="none" font-family="geogebra-sans-serif, sans-serif" font-size="12px" font-style="normal" font-weight="normal" text-decoration="normal" x="392" y="783" text-anchor="start" dominant-baseline="alphabetic" fill-opacity="1">–4</text><text fill="none" stroke="rgb(255,255,255)" font-family="geogebra-sans-serif, sans-serif" font-size="12px" font-style="normal" font-weight="normal" text-decoration="normal" x="392" y="783" text-anchor="start" dominant-baseline="alphabetic" stroke-opacity="1" stroke-linejoin="bevel" stroke-miterlimit="10" stroke-width="3">–4</text><text fill="rgb(37,37,37)" stroke="none" font-family="geogebra-sans-serif, sans-serif" font-size="12px" font-style="normal" font-weight="normal" text-decoration="normal" x="392" y="783" text-anchor="start" dominant-baseline="alphabetic" fill-opacity="1">–4</text><text fill="rgb(37,37,37)" stroke="none" font-family="geogebra-sans-serif, sans-serif" font-size="12px" font-style="normal" font-weight="normal" text-decoration="normal" x="392" y="709" text-anchor="start" dominant-baseline="alphabetic" fill-opacity="1">–3</text><text fill="none" stroke="rgb(255,255,255)" font-family="geogebra-sans-serif, sans-serif" font-size="12px" font-style="normal" font-weight="normal" text-decoration="normal" x="392" y="709" text-anchor="start" dominant-baseline="alphabetic" stroke-opacity="1" stroke-linejoin="bevel" stroke-miterlimit="10" stroke-width="3">–3</text><text fill="rgb(37,37,37)" stroke="none" font-family="geogebra-sans-serif, sans-serif" font-size="12px" font-style="normal" font-weight="normal" text-decoration="normal" x="392" y="709" text-anchor="start" dominant-baseline="alphabetic" fill-opacity="1">–3</text><text fill="rgb(37,37,37)" stroke="none" font-family="geogebra-sans-serif, sans-serif" font-size="12px" font-style="normal" font-weight="normal" text-decoration="normal" x="392" y="636" text-anchor="start" dominant-baseline="alphabetic" fill-opacity="1">–2</text><text fill="none" stroke="rgb(255,255,255)" font-family="geogebra-sans-serif, sans-serif" font-size="12px" font-style="normal" font-weight="normal" text-decoration="normal" x="392" y="636" text-anchor="start" dominant-baseline="alphabetic" stroke-opacity="1" stroke-linejoin="bevel" stroke-miterlimit="10" stroke-width="3">–2</text><text fill="rgb(37,37,37)" stroke="none" font-family="geogebra-sans-serif, sans-serif" font-size="12px" font-style="normal" font-weight="normal" text-decoration="normal" x="392" y="636" text-anchor="start" dominant-baseline="alphabetic" fill-opacity="1">–2</text><text fill="rgb(37,37,37)" stroke="none" font-family="geogebra-sans-serif, sans-serif" font-size="12px" font-style="normal" font-weight="normal" text-decoration="normal" x="392" y="563" text-anchor="start" dominant-baseline="alphabetic" fill-opacity="1">–1</text><text fill="none" stroke="rgb(255,255,255)" font-family="geogebra-sans-serif, sans-serif" font-size="12px" font-style="normal" font-weight="normal" text-decoration="normal" x="392" y="563" text-anchor="start" dominant-baseline="alphabetic" stroke-opacity="1" stroke-linejoin="bevel" stroke-miterlimit="10" stroke-width="3">–1</text><text fill="rgb(37,37,37)" stroke="none" font-family="geogebra-sans-serif, sans-serif" font-size="12px" font-style="normal" font-weight="normal" text-decoration="normal" x="392" y="563" text-anchor="start" dominant-baseline="alphabetic" fill-opacity="1">–1</text><text fill="rgb(37,37,37)" stroke="none" font-family="geogebra-sans-serif, sans-serif" font-size="12px" font-style="normal" font-weight="normal" text-decoration="normal" x="399" y="417" text-anchor="start" dominant-baseline="alphabetic" fill-opacity="1">1</text><text fill="none" stroke="rgb(255,255,255)" font-family="geogebra-sans-serif, sans-serif" font-size="12px" font-style="normal" font-weight="normal" text-decoration="normal" x="399" y="417" text-anchor="start" dominant-baseline="alphabetic" stroke-opacity="1" stroke-linejoin="bevel" stroke-miterlimit="10" stroke-width="3">1</text><text fill="rgb(37,37,37)" stroke="none" font-family="geogebra-sans-serif, sans-serif" font-size="12px" font-style="normal" font-weight="normal" text-decoration="normal" x="399" y="417" text-anchor="start" dominant-baseline="alphabetic" fill-opacity="1">1</text><text fill="rgb(37,37,37)" stroke="none" font-family="geogebra-sans-serif, sans-serif" font-size="12px" font-style="normal" font-weight="normal" text-decoration="normal" x="399" y="343" text-anchor="start" dominant-baseline="alphabetic" fill-opacity="1">2</text><text fill="none" stroke="rgb(255,255,255)" font-family="geogebra-sans-serif, sans-serif" font-size="12px" font-style="normal" font-weight="normal" text-decoration="normal" x="399" y="343" text-anchor="start" dominant-baseline="alphabetic" stroke-opacity="1" stroke-linejoin="bevel" stroke-miterlimit="10" stroke-width="3">2</text><text fill="rgb(37,37,37)" stroke="none" font-family="geogebra-sans-serif, sans-serif" font-size="12px" font-style="normal" font-weight="normal" text-decoration="normal" x="399" y="343" text-anchor="start" dominant-baseline="alphabetic" fill-opacity="1">2</text><text fill="rgb(37,37,37)" stroke="none" font-family="geogebra-sans-serif, sans-serif" font-size="12px" font-style="normal" font-weight="normal" text-decoration="normal" x="399" y="270" text-anchor="start" dominant-baseline="alphabetic" fill-opacity="1">3</text><text fill="none" stroke="rgb(255,255,255)" font-family="geogebra-sans-serif, sans-serif" font-size="12px" font-style="normal" font-weight="normal" text-decoration="normal" x="399" y="270" text-anchor="start" dominant-baseline="alphabetic" stroke-opacity="1" stroke-linejoin="bevel" stroke-miterlimit="10" stroke-width="3">3</text><text fill="rgb(37,37,37)" stroke="none" font-family="geogebra-sans-serif, sans-serif" font-size="12px" font-style="normal" font-weight="normal" text-decoration="normal" x="399" y="270" text-anchor="start" dominant-baseline="alphabetic" fill-opacity="1">3</text><text fill="rgb(37,37,37)" stroke="none" font-family="geogebra-sans-serif, sans-serif" font-size="12px" font-style="normal" font-weight="normal" text-decoration="normal" x="399" y="197" text-anchor="start" dominant-baseline="alphabetic" fill-opacity="1">4</text><text fill="none" stroke="rgb(255,255,255)" font-family="geogebra-sans-serif, sans-serif" font-size="12px" font-style="normal" font-weight="normal" text-decoration="normal" x="399" y="197" text-anchor="start" dominant-baseline="alphabetic" stroke-opacity="1" stroke-linejoin="bevel" stroke-miterlimit="10" stroke-width="3">4</text><text fill="rgb(37,37,37)" stroke="none" font-family="geogebra-sans-serif, sans-serif" font-size="12px" font-style="normal" font-weight="normal" text-decoration="normal" x="399" y="197" text-anchor="start" dominant-baseline="alphabetic" fill-opacity="1">4</text><text fill="rgb(37,37,37)" stroke="none" font-family="geogebra-sans-serif, sans-serif" font-size="12px" font-style="normal" font-weight="normal" text-decoration="normal" x="399" y="124" text-anchor="start" dominant-baseline="alphabetic" fill-opacity="1">5</text><text fill="none" stroke="rgb(255,255,255)" font-family="geogebra-sans-serif, sans-serif" font-size="12px" font-style="normal" font-weight="normal" text-decoration="normal" x="399" y="124" text-anchor="start" dominant-baseline="alphabetic" stroke-opacity="1" stroke-linejoin="bevel" stroke-miterlimit="10" stroke-width="3">5</text><text fill="rgb(37,37,37)" stroke="none" font-family="geogebra-sans-serif, sans-serif" font-size="12px" font-style="normal" font-weight="normal" text-decoration="normal" x="399" y="124" text-anchor="start" dominant-baseline="alphabetic" fill-opacity="1">5</text><text fill="rgb(37,37,37)" stroke="none" font-family="geogebra-sans-serif, sans-serif" font-size="12px" font-style="normal" font-weight="normal" text-decoration="normal" x="399" y="51" text-anchor="start" dominant-baseline="alphabetic" fill-opacity="1">6</text><text fill="none" stroke="rgb(255,255,255)" font-family="geogebra-sans-serif, sans-serif" font-size="12px" font-style="normal" font-weight="normal" text-decoration="normal" x="399" y="51" text-anchor="start" dominant-baseline="alphabetic" stroke-opacity="1" stroke-linejoin="bevel" stroke-miterlimit="10" stroke-width="3">6</text><text fill="rgb(37,37,37)" stroke="none" font-family="geogebra-sans-serif, sans-serif" font-size="12px" font-style="normal" font-weight="normal" text-decoration="normal" x="399" y="51" text-anchor="start" dominant-baseline="alphabetic" fill-opacity="1">6</text><text fill="rgb(37,37,37)" stroke="none" font-family="geogebra-sans-serif, sans-serif" font-size="12px" font-style="normal" font-weight="normal" text-decoration="normal" x="399" y="501" text-anchor="start" dominant-baseline="alphabetic" fill-opacity="1">0</text><text fill="none" stroke="rgb(255,255,255)" font-family="geogebra-sans-serif, sans-serif" font-size="12px" font-style="normal" font-weight="normal" text-decoration="normal" x="399" y="501" text-anchor="start" dominant-baseline="alphabetic" stroke-opacity="1" stroke-linejoin="bevel" stroke-miterlimit="10" stroke-width="3">0</text><text fill="rgb(37,37,37)" stroke="none" font-family="geogebra-sans-serif, sans-serif" font-size="12px" font-style="normal" font-weight="normal" text-decoration="normal" x="399" y="501" text-anchor="start" dominant-baseline="alphabetic" fill-opacity="1">0</text><path fill="none" stroke="rgb(46,125,50)" paint-order="fill stroke markers" d=" M -5 697.3467207692307 L 1313 325.60313102564066" stroke-opacity="0.8" stroke-linecap="round" stroke-linejoin="round" stroke-miterlimit="10" stroke-width="2.5"/><text fill="rgb(46,125,50)" stroke="none" font-family="geogebra-sans-serif, sans-serif" font-size="16px" font-style="normal" font-weight="normal" text-decoration="normal" x="85" y="686" text-anchor="start" dominant-baseline="alphabetic" fill-opacity="1">a x + b y + c = 0</text><text fill="none" stroke="rgb(255,255,255)" font-family="geogebra-sans-serif, sans-serif" font-size="16px" font-style="normal" font-weight="normal" text-decoration="normal" x="85" y="686" text-anchor="start" dominant-baseline="alphabetic" stroke-opacity="1" stroke-linejoin="bevel" stroke-miterlimit="10" stroke-width="3">a x + b y + c = 0</text><text fill="rgb(46,125,50)" stroke="none" font-family="geogebra-sans-serif, sans-serif" font-size="16px" font-style="normal" font-weight="normal" text-decoration="normal" x="85" y="686" text-anchor="start" dominant-baseline="alphabetic" fill-opacity="1">a x + b y + c = 0</text><path fill="none" stroke="rgb(0,0,0)" paint-order="fill stroke markers" d=" M 529.8765417948713 897 L 275.4662853846151 -5" stroke-opacity="1" stroke-linejoin="round" stroke-miterlimit="10" stroke-dasharray="9,8"/><path fill="none" stroke="rgb(0,0,0)" paint-order="fill stroke markers" d=" M 653.5742212820506 897 L 399.16396487179446 -5" stroke-opacity="0.6980392156862745" stroke-linejoin="round" stroke-miterlimit="10" stroke-width="1.5" stroke-dasharray="9.5,8"/><path fill="rgb(0,0,0)" stroke="none" paint-order="stroke fill markers" d=" M 333.25233999999955 199.8778299999998 L 333.776751682428 217.39318019311133 L 336.66410071038723 216.5787996980459 L 412.57477790501656 485.71665520627715 C 412.7301852679397 486.2676449475501 413.2315949546708 486.6276496721631 413.77718605815085 486.6276496721631 C 413.8895176411762 486.6276496721631 414.00372209939115 486.6123888687199 414.1171652062768 486.5803920949829 C 414.7815980544354 486.3929879583228 415.1683062316427 485.70243764188126 414.9809020949826 485.0380047937227 L 339.07022490035325 215.90014928549138 L 341.95757392831246 215.08576879042596 L 333.25233999999955 199.8778299999998 Z" fill-opacity="0.6980392156862745"/><text fill="rgb(0,0,0)" stroke="none" font-family="geogebra-sans-serif, sans-serif" font-size="16px" font-style="normal" font-weight="normal" text-decoration="normal" x="369" y="343" text-anchor="start" dominant-baseline="alphabetic" fill-opacity="1">v=(a,b)</text><text fill="none" stroke="rgb(255,255,255)" font-family="geogebra-sans-serif, sans-serif" font-size="16px" font-style="normal" font-weight="normal" text-decoration="normal" x="369" y="343" text-anchor="start" dominant-baseline="alphabetic" stroke-opacity="1" stroke-linejoin="bevel" stroke-miterlimit="10" stroke-width="3">v=(a,b)</text><text fill="rgb(0,0,0)" stroke="none" font-family="geogebra-sans-serif, sans-serif" font-size="16px" font-style="normal" font-weight="normal" text-decoration="normal" x="369" y="343" text-anchor="start" dominant-baseline="alphabetic" fill-opacity="1">v=(a,b)</text><path fill="rgb(0,0,0)" stroke="none" paint-order="stroke fill markers" d=" M 479.6627400182034 279.15299804189635 C 479.1672849007491 279.15299804189635 478.69834659808197 279.44956379929334 478.5023929055049 279.9374730069501 C 478.24510719264146 280.57809409785006 478.5558619160498 281.3059913816311 479.1964830069498 281.56327709449454 L 873.3317877410676 439.8555723117944 L 872.2137309577481 442.6394453385816 L 889.5729252192448 445.03128032277687 L 875.3815585104867 434.75180509601785 L 874.2635017271672 437.53567812280505 L 480.12819699304936 279.2433829055052 C 479.97548510980613 279.1820508852188 479.8178137140091 279.15299804189635 479.6627400182034 279.15299804189635 Z" fill-opacity="0.6980392156862745"/><text fill="rgb(0,0,0)" stroke="none" font-family="geogebra-sans-serif, sans-serif" font-size="16px" font-style="normal" font-weight="normal" text-decoration="normal" x="686" y="358" text-anchor="start" dominant-baseline="alphabetic" fill-opacity="1">r=(x-u,y-v)</text><text fill="none" stroke="rgb(255,255,255)" font-family="geogebra-sans-serif, sans-serif" font-size="16px" font-style="normal" font-weight="normal" text-decoration="normal" x="686" y="358" text-anchor="start" dominant-baseline="alphabetic" stroke-opacity="1" stroke-linejoin="bevel" stroke-miterlimit="10" stroke-width="3">r=(x-u,y-v)</text><text fill="rgb(0,0,0)" stroke="none" font-family="geogebra-sans-serif, sans-serif" font-size="16px" font-style="normal" font-weight="normal" text-decoration="normal" x="686" y="358" text-anchor="start" dominant-baseline="alphabetic" fill-opacity="1">r=(x-u,y-v)</text><path fill="rgb(21,101,192)" stroke="none" paint-order="stroke fill markers" d=" M 484.6623399999996 280.40332999999987 C 484.6623399999996 283.1647537491538 482.4237637491535 285.40332999999987 479.6623399999996 285.40332999999987 C 476.9009162508456 285.40332999999987 474.6623399999996 283.1647537491538 474.6623399999996 280.40332999999987 C 474.6623399999996 277.6419062508459 476.9009162508456 275.40332999999987 479.6623399999996 275.40332999999987 C 482.4237637491535 275.40332999999987 484.6623399999996 277.6419062508459 484.6623399999996 280.40332999999987 Z" fill-opacity="1"/><path fill="none" stroke="rgb(0,0,0)" paint-order="fill stroke markers" d=" M 484.6623399999996 280.40332999999987 C 484.6623399999996 283.1647537491538 482.4237637491535 285.40332999999987 479.6623399999996 285.40332999999987 C 476.9009162508456 285.40332999999987 474.6623399999996 283.1647537491538 474.6623399999996 280.40332999999987 C 474.6623399999996 277.6419062508459 476.9009162508456 275.40332999999987 479.6623399999996 275.40332999999987 C 482.4237637491535 275.40332999999987 484.6623399999996 277.6419062508459 484.6623399999996 280.40332999999987 Z" stroke-opacity="1" stroke-linecap="round" stroke-linejoin="round" stroke-miterlimit="10"/><text fill="rgb(21,101,192)" stroke="none" font-family="geogebra-sans-serif, sans-serif" font-size="16px" font-style="normal" font-weight="normal" text-decoration="normal" x="484" y="270" text-anchor="start" dominant-baseline="alphabetic" fill-opacity="1">(u,v)</text><text fill="none" stroke="rgb(255,255,255)" font-family="geogebra-sans-serif, sans-serif" font-size="16px" font-style="normal" font-weight="normal" text-decoration="normal" x="484" y="270" text-anchor="start" dominant-baseline="alphabetic" stroke-opacity="1" stroke-linejoin="bevel" stroke-miterlimit="10" stroke-width="3">(u,v)</text><text fill="rgb(21,101,192)" stroke="none" font-family="geogebra-sans-serif, sans-serif" font-size="16px" font-style="normal" font-weight="normal" text-decoration="normal" x="484" y="270" text-anchor="start" dominant-baseline="alphabetic" fill-opacity="1">(u,v)</text><path fill="rgb(21,101,192)" stroke="none" paint-order="stroke fill markers" d=" M 894.5729252192448 445.03128032277687 C 894.5729252192448 447.7927040719308 892.3343489683988 450.03128032277687 889.5729252192448 450.03128032277687 C 886.8115014700908 450.03128032277687 884.5729252192448 447.7927040719308 884.5729252192448 445.03128032277687 C 884.5729252192448 442.2698565736229 886.8115014700908 440.03128032277687 889.5729252192448 440.03128032277687 C 892.3343489683988 440.03128032277687 894.5729252192448 442.2698565736229 894.5729252192448 445.03128032277687 Z" fill-opacity="1"/><path fill="none" stroke="rgb(0,0,0)" paint-order="fill stroke markers" d=" M 894.5729252192448 445.03128032277687 C 894.5729252192448 447.7927040719308 892.3343489683988 450.03128032277687 889.5729252192448 450.03128032277687 C 886.8115014700908 450.03128032277687 884.5729252192448 447.7927040719308 884.5729252192448 445.03128032277687 C 884.5729252192448 442.2698565736229 886.8115014700908 440.03128032277687 889.5729252192448 440.03128032277687 C 892.3343489683988 440.03128032277687 894.5729252192448 442.2698565736229 894.5729252192448 445.03128032277687 Z" stroke-opacity="1" stroke-linecap="round" stroke-linejoin="round" stroke-miterlimit="10"/><text fill="rgb(21,101,192)" stroke="none" font-family="geogebra-sans-serif, sans-serif" font-size="16px" font-style="normal" font-weight="normal" text-decoration="normal" x="894" y="435" text-anchor="start" dominant-baseline="alphabetic" fill-opacity="1">(x,y)</text><text fill="none" stroke="rgb(255,255,255)" font-family="geogebra-sans-serif, sans-serif" font-size="16px" font-style="normal" font-weight="normal" text-decoration="normal" x="894" y="435" text-anchor="start" dominant-baseline="alphabetic" stroke-opacity="1" stroke-linejoin="bevel" stroke-miterlimit="10" stroke-width="3">(x,y)</text><text fill="rgb(21,101,192)" stroke="none" font-family="geogebra-sans-serif, sans-serif" font-size="16px" font-style="normal" font-weight="normal" text-decoration="normal" x="894" y="435" text-anchor="start" dominant-baseline="alphabetic" fill-opacity="1">(x,y)</text></g></g></svg>